<svg xmlns="http://www.w3.org/2000/svg" viewBox="0 0 627.37 180.72"><defs><style>.cls-1{fill:#fff;}</style></defs><title>Zasób 2</title><g id="Warstwa_2" data-name="Warstwa 2"><g id="Layer_1" data-name="Layer 1"><path class="cls-1" d="M70.54,117.69q-20.27,11.16-39.69,11.17-14.49,0-22.67-9.36T0,93.56Q0,66,19.24,44.57t44-21.42a62.09,62.09,0,0,1,11.38,1.07,76.82,76.82,0,0,1,11.86,3.21L81.33,52.92H72.21A36.35,36.35,0,0,0,73.7,41.85,8.79,8.79,0,0,0,69,33.66c-3.16-1.8-6.54-2.91-14.21-2.7-10,.27-18.43,5.63-25.18,16.89s-10.12,25.27-10.12,42q0,14.14,5.85,21.26t17.56,7.12c6.75,0,17.64-2.33,32.14-9.83Z"/><path class="cls-1" d="M112.62,128.86q-16,0-24-8.76t-8-26.17A73,73,0,0,1,99.22,44.52q18.61-21.38,43.09-21.37,16.38,0,24.52,8.71T175,58a72.66,72.66,0,0,1-18.8,49.55Q137.38,128.86,112.62,128.86Zm4.75-7.08q14.79,0,26-19.65t11.26-45.27q0-13.32-4.28-20t-12.93-6.66q-14.43,0-25.59,20.12t-11.17,46.2q0,11.17,4.65,18.21T117.37,121.78Z"/><path class="cls-1" d="M235.19,126.53l8.23-41.32q-24.1,43.65-48,43.65-7.41,0-11.19-4.38t-3.77-13.12a72.68,72.68,0,0,1,1.76-13.12l9.71-48.67a70.54,70.54,0,0,0,1.49-13.21c0-2-.58-3.19-1.73-3.63s-5-.9-11.67-1.4l-1.68-.09,1.12-5.77h35.77L200.33,99.65a62.6,62.6,0,0,0-1,7.9,6.56,6.56,0,0,0,1.54,4.75,6,6,0,0,0,4.45,1.57q12.18,0,41-43.17l9-45.23h18.41l-15.13,75.88a79.3,79.3,0,0,0-1.49,14.09c0,2.1.58,3.38,1.73,3.84s5,.92,11.67,1.38l1.68.1-1.12,5.77Z"/><path class="cls-1" d="M286.21,126.53l15.34-77A71.7,71.7,0,0,0,303,36.36c0-2-.57-3.19-1.72-3.63s-5-.9-11.68-1.4L288,31.24l1.12-5.77h35.68l-8.22,41.25q12-20.11,26.13-31.84T369,23.15q8.08,0,12.13,4.34t4.05,13.12a76.16,76.16,0,0,1-1.77,13.25l-9.68,48.58a70,70,0,0,0-1.49,13.3c0,2,.57,3.19,1.72,3.63s5,.86,11.68,1.3l1.67.09-1.11,5.77H350.51l15-75.28a46.26,46.26,0,0,0,.93-7.87,6.53,6.53,0,0,0-1.63-4.87,6.76,6.76,0,0,0-4.89-1.59q-15.09,0-46.19,43.82l-9.12,45.79Z"/><path class="cls-1" d="M458.93,126.53l15.34-77a69.71,69.71,0,0,0,1.49-13.21c0-2-.57-3.19-1.72-3.63s-3.13-.9-9.77-1.4l-1.68-.09,1.12-5.77h33.77l-8.24,41.35c14.78-24,28.55-39.18,42.8-41.45l-3,18.66c-11.79,0-25.84,11.19-42.34,35.32l-9.4,47.18Z"/><path class="cls-1" d="M622.59,101.84a31.47,31.47,0,0,1-2.68,3.69,25.63,25.63,0,0,1-3,3.49,29.41,29.41,0,0,1-4.48,3.55,28,28,0,0,1-5.39,2.57,69.72,69.72,0,0,1-8.13,2.32L586,120.39A133.19,133.19,0,0,0,561.07,128c-1,.44-2,.89-3,1.36,2.31-2.89,4.71-5.83,7.25-8.88l35.22-42.26Q617,58.6,622.21,50t5.16-16.52a18.28,18.28,0,0,0-2-8h-23q7.35,6.62,7.35,15.36,0,8.46-5.63,18.47T581.53,90.89l-11.43,14.7Q568,59.72,553.39,25.47l-20.85,0S542.79,42.79,548.39,73c3.17,17.15,6.35,34.3,6.39,50.3-19.45,18-55,49.55-66.31,57.46h25.36c3.37-5.7,12.47-16.51,22.52-28,.29-.25.57-.51.83-.75a48.94,48.94,0,0,1,12-8.28,95.82,95.82,0,0,1,13.63-5.48q6.93-2.19,13.14-3.53t10.37-2.59q5-1.38,8.74-2.72a69.24,69.24,0,0,0,6.68-2.79,36.27,36.27,0,0,0,5.33-3.18,50.68,50.68,0,0,0,4.84-4.05,36.34,36.34,0,0,0,6.44-8.53c2-3.59,3.54-6.67,4.52-8.69Z"/><path class="cls-1" d="M431.57,42.92h0s.65-3.21,1.4-5.8a12.58,12.58,0,0,1,1.52-3.9c.56-.57.72-1.34,7.16-1.67l14.65-.35,1.23-5.74H435L439.74,0,420.29,7.14l-3.66,18.33H394.79l-1,5.74s12.7-.1,17.76.21c2.1.13,2.74.46,3,.64a1.92,1.92,0,0,1,.38,1.58c-.06.6-.41,2.53-.41,2.53h0L402.39,96.94a49.6,49.6,0,0,0-1.12,9.58q0,10,6.47,16.15t17.07,6.19a37.66,37.66,0,0,0,14.95-3.45l1.58-7.72A33.35,33.35,0,0,1,430,120.2q-5.34,0-8-2.79t-2.66-8.28a54.23,54.23,0,0,1,.93-9.68Z"/></g></g></svg>