<?xml version="1.0" encoding="UTF-8"?>
<svg width="598px" height="132px" viewBox="0 0 598 132" version="1.1" xmlns="http://www.w3.org/2000/svg" xmlns:xlink="http://www.w3.org/1999/xlink">
    <!-- Generator: Sketch 62 (91390) - https://sketch.com -->
    <title>Group 2</title>
    <desc>Created with Sketch.</desc>
    <g id="Page-1" stroke="none" stroke-width="1" fill="none" fill-rule="evenodd">
        <g id="logo" transform="translate(-15.000000, -37.000000)" fill="#5DBCB1" fill-rule="nonzero">
            <g id="Group-2" transform="translate(15.090000, 37.150000)">
                <path d="M335.97,111.85 C335.97,110.65 335.97,67.83 335.97,63.43 C335.97,33.41 314.32,31.01 303.95,31.01 C289.09,31.01 277.84,34.78 270.74,38.37 L270.74,65.46 C274.59,55.25 283.44,42.22 296.67,42.22 C304.86,42.22 309.4,49.22 309.4,58.43 C309.58,61.63 309.58,65.43 307.04,67.63 C300.86,72.83 282.12,75.23 272.84,81.84 C263.38,87.84 259.92,96.45 259.92,104.05 C259.92,114.86 267.56,129.46 283.75,129.46 C294.67,129.46 304.49,123.26 310.31,117.45 C310.86,125.05 313.77,127.06 317.95,129.86 L341.05,121.45 C335.61,119.86 335.97,117.66 335.97,111.85 Z M309.05,108.25 C306.14,111.05 302.32,113.45 297.23,113.45 C290.68,113.45 285.04,109.45 285.04,99.64 C285.04,92.04 289.41,87.83 295.41,84.23 C301.05,81.43 304.32,80.83 309.05,78.43 L309.05,108.25 Z" id="Shape"></path>
                <path d="M184.82,65.43 L155.35,65.43 C155.71,52.22 161.72,42.22 170.81,42.22 C178.45,42.22 184.82,51.22 184.82,65.43 Z M211.38,77.04 C211.38,43.82 193.37,31.02 171.54,31.02 C144.98,31.02 127.52,53.63 127.52,80.05 C127.52,110.47 148.08,129.48 171.54,129.48 C195.92,129.48 209.56,112.07 209.56,95.86 C205.74,104.46 193.91,114.27 181.91,114.27 C163.9,114.27 155.35,93.66 154.99,80.05 C154.99,78.65 154.99,77.65 154.99,77.05 L211.38,77.05 L211.38,77.04 L211.38,77.04 Z" id="Shape"></path>
                <path d="M393.2,127.46 C396.47,125.66 397.93,123.26 397.93,118.85 L397.93,69.02 C397.93,61.22 397.75,48.01 383.01,48.01 C377.37,48.01 371.37,52.21 368.82,56.01 L368.82,118.84 C368.82,123.24 370.82,125.64 373.55,127.45 L337.53,127.45 C340.44,125.65 342.26,123.25 342.26,118.84 L342.26,44.2 C342.26,38 339.71,36.2 336.62,35.2 L368.82,30.6 L368.82,43.61 C375.55,37.01 384.28,31 396.47,31 C412.3,31 424.3,41.81 424.3,61.22 L424.3,118.85 C424.3,123.25 426.12,125.65 429.03,127.46 L393.2,127.46 Z" id="Path"></path>
                <path d="M592.93,111.85 C592.93,110.65 592.93,67.83 592.93,63.43 C592.93,33.41 571.28,31.01 560.91,31.01 C546.05,31.01 534.8,34.78 527.7,38.37 L527.7,65.46 C531.55,55.25 540.4,42.22 553.63,42.22 C561.82,42.22 566.36,49.22 566.36,58.43 C566.54,61.63 566.54,65.43 563.99,67.63 C557.81,72.83 539.07,75.23 529.79,81.84 C520.33,87.84 516.87,96.45 516.87,104.05 C516.87,114.86 524.51,129.46 540.7,129.46 C551.62,129.46 561.44,123.26 567.26,117.45 C567.81,125.05 570.72,127.06 574.9,129.86 L598,121.45 C592.56,119.86 592.93,117.66 592.93,111.85 Z M566.01,108.25 C563.1,111.05 559.28,113.45 554.19,113.45 C547.64,113.45 542,109.45 542,99.64 C542,92.04 546.37,87.83 552.37,84.23 C558.01,81.43 561.28,80.83 566.01,78.43 L566.01,108.25 L566.01,108.25 Z" id="Shape"></path>
                <path d="M267.85,31.74 C265.75,30.74 264.76,30.36 260.17,30.75 C253.51,31.32 244.88,37.77 239.53,47.81 L239.53,30.75 L206.6,35.57 C209.85,36.77 213.67,37.78 213.67,44 L213.67,118.84 C213.67,123.25 211.57,125.66 208.51,127.47 L244.49,127.47 C241.43,125.66 239.52,123.26 239.52,118.84 L239.52,60.24 C242.77,56.43 246.59,52.86 253.85,52.86 C259.53,52.86 264.16,55.4 267.83,62.84 L267.83,31.74 L267.85,31.74 L267.85,31.74 Z" id="Path"></path>
                <path d="M139.39,0.01 L111.01,77.95 L94.64,32.57 L107.99,0.01 L95.35,0.01 L88.27,17.65 L81.63,0.01 L51.32,0.01 C59.73,21.96 69.58,47.78 70.81,51.69 L60.99,80.06 L30.92,0.01 L0,0.01 C18.17,46.85 51.18,131.74 51.18,131.74 L77.18,67.66 C80.09,76.06 100.83,131.74 100.83,131.74 L152.25,0 L139.39,0 L139.39,0.01 L139.39,0.01 Z" id="Path"></path>
                <path d="M514.17,111.45 L514.17,0.01 L486.52,0.01 L486.52,35.82 C481.79,32.82 478.33,31.02 470.69,31.02 C446.68,31.02 426.85,53.63 426.85,80.85 C426.85,111.07 443.77,129.48 462.87,129.48 C473.6,129.48 481.79,124.08 486.88,119.87 L486.88,129.88 L520.53,119.87 C517.63,118.86 514.17,117.46 514.17,111.45 Z M486.52,110.45 C484.34,111.85 481.61,113.85 477.42,113.85 C470.14,113.85 454.68,107.65 454.68,77.23 C454.68,61.62 461.23,42.81 476.69,42.81 C482.15,42.81 483.97,45.21 486.51,48.01 L486.52,110.45 L486.52,110.45 Z" id="Shape"></path>
            </g>
        </g>
    </g>
</svg>