<svg xmlns="http://www.w3.org/2000/svg">
    <!-- Menu icon -->
    <symbol id="close" x="0px" y="0px" width="100%" height="100%" viewBox="0 0 35.5 35.4">
        <polygon class="cls-1" points="26.59 9.78 25.17 8.36 17.75 15.79 10.32 8.36 8.91 9.78 16.33 17.2 8.91 24.63 10.32 26.04 17.75 18.62 25.17 26.04 26.59 24.63 19.16 17.2 26.59 9.78"/>
        <rect class="cls-2" x="1.18" y="1.18" width="33.13" height="33.04"/>
    </symbol>
    
    <!-- Social icons -->
    <symbol id="icon-fb" x="0px" y="0px" width="100%" height="100%" viewBox="0 0 39.19 84.32">
        <path class="cls-1" d="M105.48,70.1,104,84.59H92.31v42.16H75V84.59H66.29V70.1h8.56V61.37a32,32,0,0,1,.91-8A13,13,0,0,1,79,47.45a15.48,15.48,0,0,1,5.85-3.7,25.39,25.39,0,0,1,8.81-1.32h11.69V56.92H98.07a10.34,10.34,0,0,0-3.29.41,3.67,3.67,0,0,0-1.73,1.16,3.78,3.78,0,0,0-.74,1.81,16.87,16.87,0,0,0-.17,2.55V70.1h13.34Z" transform="translate(-66.29 -42.43)"/>
    </symbol>

    <symbol id="icon-pinterest" x="0px" y="0px" width="100%" height="100%" viewBox="0 0 69.9 69.9">
        <path class="cls-1" d="M116.31,102.33a35.34,35.34,0,0,1-12.75,12.75,34.74,34.74,0,0,1-27.76,3.18A35.32,35.32,0,0,0,80,109.09l2.26-8.31a6.54,6.54,0,0,0,3.1,2.82,10.89,10.89,0,0,0,4.93,1.13,15.86,15.86,0,0,0,9.23-2.89A19.45,19.45,0,0,0,106,94a25,25,0,0,0,2.32-10.79,19.84,19.84,0,0,0-2.82-10.49,19.58,19.58,0,0,0-7.75-7.26,23.13,23.13,0,0,0-11-2.61,26.42,26.42,0,0,0-12.69,3,20.14,20.14,0,0,0-7.67,7.68A20.9,20.9,0,0,0,63.68,84a17.71,17.71,0,0,0,2,8.1,11.19,11.19,0,0,0,5.14,5.43c.66.28,1,.14,1.13-.42l1-4a1,1,0,0,0-.28-1,11.2,11.2,0,0,1-1.84-3.59,14.71,14.71,0,0,1-.7-4.44,15.18,15.18,0,0,1,1.9-7.4,14.7,14.7,0,0,1,5.43-5.56,15.73,15.73,0,0,1,8.45-2.26,14.41,14.41,0,0,1,10.57,4,13.67,13.67,0,0,1,4.09,10.21q0,7.05-3.17,11.56t-7.82,4.51a5.15,5.15,0,0,1-4.23-1.9,5,5,0,0,1-1-4.44,35.59,35.59,0,0,1,1.27-4.51,30.91,30.91,0,0,0,1.55-7.26,5,5,0,0,0-1.13-3.38,4,4,0,0,0-3.24-1.34,5.51,5.51,0,0,0-4.51,2.4,9.67,9.67,0,0,0-1.83,6.06,12.26,12.26,0,0,0,1,5.21L73.54,107.4a31.12,31.12,0,0,0-.14,10,33.81,33.81,0,0,1-16.13-12.68,35,35,0,0,1-1.41-37.35A35.18,35.18,0,0,1,68.61,54.63a34.71,34.71,0,0,1,35,0,35.34,35.34,0,0,1,12.75,12.75,34.71,34.71,0,0,1,0,35Z" transform="translate(-51.13 -49.91)"/>
    </symbol>

    <symbol id="icon-twitter" x="0px" y="0px" width="100%" height="100%" viewBox="0 0 79.31 64.44">
        <path class="cls-1" d="M117,70.67a46,46,0,0,1-5.42,21.53,44.16,44.16,0,0,1-15.65,17.5A44.61,44.61,0,0,1,70.69,117a45.05,45.05,0,0,1-24.94-7.28c1.13.11,2.42.16,3.87.16a32.28,32.28,0,0,0,20.29-7,15.09,15.09,0,0,1-9.52-3.18,16.11,16.11,0,0,1-5.66-8q1.55.15,2.94.15A20.65,20.65,0,0,0,62,91.43a16.38,16.38,0,0,1-9.29-5.74A15.57,15.57,0,0,1,49,75.47v-.31a15.3,15.3,0,0,0,7.28,2.17A18.1,18.1,0,0,1,51,71.44a15.79,15.79,0,0,1,.31-15.95,45.56,45.56,0,0,0,33.46,17,22.23,22.23,0,0,1-.31-3.72,16.41,16.41,0,0,1,8.06-14.1,15.72,15.72,0,0,1,8-2.16,15.46,15.46,0,0,1,6.58,1.39,18.35,18.35,0,0,1,5.35,3.72,33.23,33.23,0,0,0,10.38-3.88,16.14,16.14,0,0,1-7.13,9,35,35,0,0,0,9.3-2.63,36.12,36.12,0,0,1-8.21,8.52A9.46,9.46,0,0,1,117,70.67Z" transform="translate(-45.75 -52.55)"/>
    </symbol>

    <!-- Social icons header -->
    <symbol id="header-fb" x="0px" y="0px" width="100%" height="100%" viewBox="0 0 49.97 90.29">
        <path d="M100.36,59.27c1.59,0,3.18.13,4.48.24.91.07,1.63.13,2.19.13h3.16v-19l-2.53-.52A50.46,50.46,0,0,0,97.81,39c-8.41,0-14.93,2.61-19.39,7.74C73.76,52.12,71.74,60.14,72.54,70H60.22V91.22H72.91V129.3H95V91.22h11.72l.58-2.43c.27-1.13.93-5.77,1.77-11.71l.06-.42c.19-1.36.33-2.36.38-2.64l.6-3.67h-8.48l-6.91,0c-.09-7.7.66-9.72,1-10.23C95.74,60.08,96.46,59.27,100.36,59.27ZM88.7,84.9V123H79.23V84.9H66.54V76.36H79.71l-.51-3.6c-1.38-9.71,0-17.27,4-21.86,3.2-3.7,8.12-5.57,14.61-5.57a41.24,41.24,0,0,1,6.06.49v7.27c-1.06-.08-2.28-.14-3.51-.14-5,0-8.28,1.19-9.9,3.66-1.91,2.89-2.18,8.35-2,15.67,0,.51,0,.92,0,1.2v3.16h3.17l10,0h1.13c-.33,2.32-.83,5.84-1.2,8.23Z" transform="translate(-60.22 -39.01)"/>
    </symbol>

    <symbol id="header-insta" x="0px" y="0px" width="100%" height="100%" viewBox="0 0 72.72 72.72">
        <path d="M122,69.57q.17,4.55.16,15.1t-.24,15.17a30.39,30.39,0,0,1-1.38,8A19,19,0,0,1,109,119.4a30.39,30.39,0,0,1-8,1.38c-3.09.17-8.14.25-15.18.25s-12.09-.08-15.18-.25a26.29,26.29,0,0,1-8-1.54,17.21,17.21,0,0,1-7.06-4.3,19.06,19.06,0,0,1-4.47-7.06,31.23,31.23,0,0,1-1.38-8q-.24-4.62-.24-15.17t.24-15.18a31.31,31.31,0,0,1,1.38-8,19.06,19.06,0,0,1,4.47-7.06,18.83,18.83,0,0,1,7.06-4.46,30.39,30.39,0,0,1,8-1.38q4.64-.24,15.18-.24c7,0,12.09.08,15.18.24a30.39,30.39,0,0,1,8,1.38,19,19,0,0,1,11.53,11.52A33.16,33.16,0,0,1,122,69.57Zm-7.79,36.52a34.27,34.27,0,0,0,1.3-8.76c.1-2.38.16-5.74.16-10.07V82.07c0-4.44-.06-7.79-.16-10.07a32.63,32.63,0,0,0-1.3-8.76,11.72,11.72,0,0,0-7-7A32.72,32.72,0,0,0,98.48,55q-3.57-.16-10.06-.16h-5.2c-4.32,0-7.68.05-10.06.16a34.37,34.37,0,0,0-8.77,1.3,11.72,11.72,0,0,0-7,7A32.73,32.73,0,0,0,56.12,72C56,74.39,56,77.74,56,82.07v5.19q0,6.49.17,10.07a34.37,34.37,0,0,0,1.29,8.76,12.32,12.32,0,0,0,7,7,34.37,34.37,0,0,0,8.77,1.3c2.38.11,5.74.16,10.06.16h5.2q6.66,0,10.06-.16a32.72,32.72,0,0,0,8.77-1.3A12.29,12.29,0,0,0,114.23,106.09ZM85.82,66a18.18,18.18,0,0,1,9.33,2.51A18.74,18.74,0,0,1,102,75.33,18.55,18.55,0,0,1,102,94a18.74,18.74,0,0,1-6.82,6.82,18.6,18.6,0,0,1-18.66,0A18.74,18.74,0,0,1,69.67,94a18.55,18.55,0,0,1,0-18.67,18.74,18.74,0,0,1,6.82-6.82A18.24,18.24,0,0,1,85.82,66Zm0,30.84a12.16,12.16,0,0,0,8.6-20.78,12.17,12.17,0,1,0-17.2,17.21A11.73,11.73,0,0,0,85.82,96.84Zm23.86-31.65a4.36,4.36,0,1,0-4.38,4.38,3.93,3.93,0,0,0,3-1.3A5.05,5.05,0,0,0,109.68,65.19Z" transform="translate(-49.46 -48.31)"/>
    </symbol>

    <symbol id="header-personalizacja" x="0px" y="0px" width="100%" height="100%" viewBox="0 0 61.52 61.64">
        <path d="M95,63.73q5.3.09,13.17-3.15a5.45,5.45,0,0,1,3.8-.24,5.94,5.94,0,0,1,3,2.1A5.52,5.52,0,0,1,116.13,66l-.49,28.88a5.38,5.38,0,0,1-.77,2.7,6.46,6.46,0,0,1-2,2.07,26.83,26.83,0,0,1-21.61,3.73A46.28,46.28,0,0,1,86,101.86c-1.84-.59-3.19-1-4.07-1.27a18.14,18.14,0,0,0-4-.55,34.46,34.46,0,0,0-8.56.82,36.84,36.84,0,0,0-6.91,2.41l-.16,10a1.86,1.86,0,0,1-2,1.89l-1.93,0a1.85,1.85,0,0,1-1.89-2l.82-48.86a6.41,6.41,0,0,1-2.07-2.2A5.79,5.79,0,0,1,56.48,55a5.8,5.8,0,0,1,7.94.13,5.51,5.51,0,0,1,1.75,3.52,6.65,6.65,0,0,1-.28,2.53,26.55,26.55,0,0,1,9.66-1.65,26.86,26.86,0,0,1,6.12.83,45.7,45.7,0,0,1,5.27,1.53c1.84.59,3.2,1,4.07,1.27A18.14,18.14,0,0,0,95,63.73ZM109.86,94.8l.49-28.89a36.38,36.38,0,0,1-7.26,2.41,29.93,29.93,0,0,1-8.21,1.19,23,23,0,0,1-5-.69q-1.56-.39-4.62-1.4T80.49,66a22.45,22.45,0,0,0-5-.68,21.33,21.33,0,0,0-7,1.08A23.63,23.63,0,0,0,63.11,69l-.47,27.92a28.3,28.3,0,0,1,7.14-2,46.48,46.48,0,0,1,8.31-.65,23.08,23.08,0,0,1,5,.69c1,.26,2.57.72,4.61,1.4s3.61,1.15,4.73,1.4a22.48,22.48,0,0,0,5,.69,21.09,21.09,0,0,0,7-1.09A23.19,23.19,0,0,0,109.86,94.8Z" transform="translate(-54.6 -53.51)"/>
    </symbol>

    <symbol id="header-pinterest" x="0px" y="0px" width="100%" height="100%" viewBox="0 0 65.14 83.32">
        <path d="M118.87,70.77c-.32-16.21-13.57-28-31.49-28a43.2,43.2,0,0,0-5.86.41C67.15,45.22,56.13,55.56,54.08,69c-1.47,9.62,1.65,21.17,12,23.81l1.83.47L69,91.69a18.09,18.09,0,0,0,1.75-3.24c-.21.78-.43,1.57-.64,2.37-2.69,9.82-5.46,20-3.34,32l.6,3.35,3.14-1.3c2.57-1.07,3.91-3.36,5-5.23.21-.35.41-.7.61-1,3.37-5.29,5.32-11.54,6.82-17.68,3.66,2.49,7.56,3.31,12.76,2.74C111.14,101.94,119.16,85.44,118.87,70.77ZM92.74,98.34c-4.35,0-6.71-1.53-9.54-4.34l-3.51-3.49L78.6,95.34c-1.59,7.12-3.45,14.55-7.11,20.3-.25-8.3,1.84-15.94,3.87-23.38.92-3.37,1.87-6.86,2.57-10.31l.16-.77-.28-.74c-2.17-5.76-1.73-13,2.77-14.74A4,4,0,0,1,82,65.43a3.46,3.46,0,0,1,3.42,2.84c.35,2.66-.74,5.66-1.9,8.85s-2.39,6.53-2.27,10c.15,4.46,3.79,9.2,10.23,9.2a14.21,14.21,0,0,0,2-.15A11,11,0,0,0,99.61,93l.28-.24c5.54-4.87,8.68-14,8.19-23.78-.6-12-10.11-19.77-23.28-18.77-11.29.86-20.21,8.67-22.2,19.45-.86,4.68,0,10.14,2.25,13.59a7,7,0,0,0,.91,1.08,4.38,4.38,0,0,1,.35.38,5.69,5.69,0,0,1-.6,2c-5.49-2.76-7-10.54-6-17,1.68-11,10.84-19.49,22.79-21.16a37.12,37.12,0,0,1,5.11-.36c14.82,0,25.77,9.51,26,22.62.24,12.24-6.09,26-18.32,27.32A22.32,22.32,0,0,1,92.74,98.34ZM69.65,80.53l-.19-.18h0C68,78.05,67.37,74,68,70.69c1.53-8.3,8.45-14.33,17.23-15,.62-.05,1.24-.07,1.84-.07,9,0,15.15,5.36,15.57,13.67s-2,15.6-6.34,19.4L96,89a5.67,5.67,0,0,1-3.28,1.78,7.55,7.55,0,0,1-1.23.1c-3.18,0-4.71-2-4.77-3.92-.08-2.39.9-5.08,1.94-7.94,1.34-3.65,2.71-7.43,2.19-11.42A9,9,0,0,0,82,60a9.3,9.3,0,0,0-3.35.63c-5.81,2.21-9.9,10.3-6.22,21-.26,1.25-.56,2.48-.87,3.73a6.27,6.27,0,0,0,0-1.37A5.85,5.85,0,0,0,69.65,80.53Z" transform="translate(-53.74 -42.8)"/>
    </symbol>

    <symbol id="header-search" x="0px" y="0px" width="100%" height="100%" viewBox="0 0 77 78.24">
        <path d="M122.44,111.49l-16.11-16.1a5.12,5.12,0,0,0-3.67-1.53,5,5,0,0,0-1.45.21,30.32,30.32,0,1,0-6.85,6.54,5.24,5.24,0,0,0,1.16,5.59l16.11,16.1a5.21,5.21,0,0,0,7.36,0l3.45-3.45a5.21,5.21,0,0,0,0-7.36Zm-22.18-9,2.4-2.4,15,15-2.4,2.4Zm-23.09-2.47a24.26,24.26,0,1,1,24.26-24.26A24.29,24.29,0,0,1,77.17,100.05Z" transform="translate(-46.96 -45.58)"/>
    </symbol>

    <!-- Social icons footer -->
    <symbol id="footer-fb" x="0px" y="0px" width="100%" height="100%" viewBox="0 0 45.89 85.28">
        <path d="M93.33,127.8H74.66V90.6H62.26V72.83H74.44c-1.1-10,.7-18,5.24-23.26,4.07-4.68,10.07-7,17.84-7a48.12,48.12,0,0,1,9.33,1l1.3.27v16h-1.62c-.49,0-1.17-.05-2-.13-1.29-.1-2.88-.24-4.49-.24-4.16,0-5.38.91-5.74,1.46C92.9,62.92,93,70.24,93.08,73.11h14.75L107.52,75c0,.3-.21,1.47-.43,3-.76,5.35-1.45,10.25-1.71,11.31l-.29,1.25H93.33ZM77.9,124.55H90.08V87.35h12.37c.38-2.31,1-7,1.43-9.77l.17-1.2h-2.79l-9.77,0H89.86V74.73c0-.28,0-.7,0-1.22-.14-5.94,0-11.81,1.72-14.47,1.29-2,4-2.91,8.45-2.91,1.74,0,3.49.14,4.76.25h.14V46.46a42.07,42.07,0,0,0-7.39-.7c-6.79,0-12,2-15.39,5.94C78,56.52,76.48,64.31,77.89,74.23l.26,1.85H65.5V87.35H77.9Z" transform="translate(-62.26 -42.52)"/>
    </symbol>

    <symbol id="footer-insta" x="0px" y="0px" width="100%" height="100%" viewBox="0 0 69.71 69.71">
        <path d="M102.28,63.57a2.89,2.89,0,0,0,2,4.91,2.48,2.48,0,0,0,1.91-.82,3.59,3.59,0,0,0,1-2.12,2.67,2.67,0,0,0-.85-2,2.8,2.8,0,0,0-4,0Z" transform="translate(-49.93 -50.17)"/>
        <path d="M93.39,70.19a17.07,17.07,0,0,0-17.15,0A17.27,17.27,0,0,0,70,76.42a17.05,17.05,0,0,0,0,17.14,17.35,17.35,0,0,0,6.26,6.3,17.07,17.07,0,0,0,17.15,0,17.32,17.32,0,0,0,6.29-6.26,17.07,17.07,0,0,0,0-17.15A17.27,17.27,0,0,0,93.39,70.19Zm1,24.52A13.66,13.66,0,1,1,75.14,75.34,13.66,13.66,0,1,1,94.42,94.71Z" transform="translate(-49.93 -50.17)"/>
        <path d="M118.14,62.37a17.48,17.48,0,0,0-10.58-10.61,29,29,0,0,0-7.6-1.31c-3-.17-8.12-.26-15.1-.28s-12,0-15.09.21a29.15,29.15,0,0,0-7.64,1.28A17.47,17.47,0,0,0,51.52,62.25a28.94,28.94,0,0,0-1.31,7.6c-.17,3-.27,8.12-.28,15.09s0,12.06.2,15.1a29.27,29.27,0,0,0,1.29,7.64,17.42,17.42,0,0,0,4.09,6.48,15.74,15.74,0,0,0,6.44,4,25.22,25.22,0,0,0,7.65,1.49c3.05.17,8.13.26,15.1.28s12,0,15.09-.21a29.3,29.3,0,0,0,7.65-1.28,17.53,17.53,0,0,0,10.61-10.59,29.28,29.28,0,0,0,1.31-7.6c.17-3,.26-8.12.27-15.09s0-12-.12-15A31.54,31.54,0,0,0,118.14,62.37Zm-2,20.13v5.2c0,4.32-.08,7.73-.19,10.13a35.74,35.74,0,0,1-1.4,9.19l0,.06a13.78,13.78,0,0,1-7.81,7.78c-1.94.73-5,1.18-9.27,1.39-2.28.11-5.69.15-10.14.14H82.11c-4.34,0-7.75-.07-10.13-.19a34.8,34.8,0,0,1-9.19-1.4A13.9,13.9,0,0,1,54.94,107a35.5,35.5,0,0,1-1.39-9.27c-.1-2.41-.15-5.82-.14-10.14l0-5.2c0-4.32.07-7.73.18-10.13.24-4.31.7-7.32,1.42-9.21a13.24,13.24,0,0,1,7.86-7.84,34.93,34.93,0,0,1,9.23-1.37c2.39-.11,5.8-.15,10.14-.14h5.19c4.34,0,7.75.07,10.13.19a33.8,33.8,0,0,1,9.22,1.41,13.22,13.22,0,0,1,7.83,7.86A33.64,33.64,0,0,1,116,72.36C116.11,74.66,116.16,78.07,116.15,82.5Z" transform="translate(-49.93 -50.17)"/>
    </symbol>

    <symbol id="footer-pinterest" x="0px" y="0px" width="100%" height="100%" viewBox="0 0 68.37 87.71">
        <path d="M65.71,129l-.29-1.66c-2.28-12.8.73-23.79,3.63-34.42,1-3.68,2-7.16,2.69-10.69-3-8.41-1.74-18.64,5.72-21.47a8.59,8.59,0,0,1,3.09-.58,8.21,8.21,0,0,1,8.1,6.92c.52,4-.93,8-2.33,11.8-1.2,3.29-2.33,6.39-2.23,9.34s2.5,5.91,6.9,5.91A10.94,10.94,0,0,0,92.58,94,7.87,7.87,0,0,0,97,91.68l.33-.29c5.12-4.5,8-13.18,7.53-22.66C104.4,58.64,97,52.12,86.12,52.12c-.7,0-1.42,0-2.14.08C73.56,53,65.34,60.16,63.52,70c-.75,4.07,0,8.93,1.86,11.82a3.91,3.91,0,0,0,.43.47,4.87,4.87,0,0,1,1.6,2.82c.32,2.49-1.43,5.79-2.52,7.35l-.53.77L63.45,93C53.07,90.39,50,78.56,51.48,68.68c2.14-14,13.71-24.83,28.78-26.94a45.55,45.55,0,0,1,6.23-.44c18.78,0,32.66,12.26,33,29.16.3,15.41-8,32.73-24,34.48a27.63,27.63,0,0,1-3.06.18,16.79,16.79,0,0,1-11.81-4.41c-1.74,7.5-3.89,15.15-7.88,21.42-.24.39-.48.8-.72,1.21-1.12,1.91-2.38,4.07-4.7,5ZM80.55,62.9a6,6,0,0,0-2.13.4c-6,2.28-6.74,11.12-4,18.35l.14.37-.08.38c-.76,3.75-1.8,7.56-2.8,11.24-2.66,9.73-5.41,19.78-3.92,31.1A15.61,15.61,0,0,0,69.62,122c.26-.44.52-.88.78-1.29,4.17-6.55,6.26-14.88,8-22.86l.54-2.4,1.74,1.73c3.35,3.33,6.33,5.26,11.66,5.26a27.28,27.28,0,0,0,2.77-.16c14.43-1.58,21.91-17.53,21.62-31.74-.3-15.35-13-26.5-30.28-26.5a41.64,41.64,0,0,0-5.85.42C66.76,46.36,56.12,56.28,54.16,69.09c-1.28,8.39,1,18.34,9,21,.93-1.56,1.68-3.51,1.53-4.63a2.41,2.41,0,0,0-.84-1.27,4.92,4.92,0,0,1-.78-.91c-2.22-3.48-3.12-9-2.25-13.77,2-11.11,11.26-19.17,22.92-20,.79-.06,1.58-.1,2.35-.1,12.28,0,20.92,7.71,21.49,19.19.51,10.29-2.72,19.8-8.45,24.84l-.31.27a10.55,10.55,0,0,1-5.87,3,13.53,13.53,0,0,1-2,.15c-6,0-9.47-4.39-9.61-8.53-.12-3.47,1.16-7,2.4-10.36,1.34-3.7,2.62-7.19,2.18-10.51A5.45,5.45,0,0,0,80.55,62.9Z" transform="translate(-51.12 -41.3)"/>
    </symbol>

    <symbol id="footer-search" x="0px" y="0px" width="100%" height="100%" viewBox="0 0 82.84 84.24">
        <path d="M107.45,97.65a4.16,4.16,0,0,0-5.87,0l-.76.77-1.66-1.66A32,32,0,1,0,96.76,99l1.72,1.72-.76.77a4.14,4.14,0,0,0,0,5.86l18,18a4.15,4.15,0,0,0,5.86,0l3.86-3.87a4.13,4.13,0,0,0,0-5.86ZM47.15,74.53A28.84,28.84,0,1,1,76,103.37,28.87,28.87,0,0,1,47.15,74.53Zm76,44.68-3.87,3.87a.86.86,0,0,1-1.19,0l-18-18a.85.85,0,0,1,0-1.2l3.87-3.86a.83.83,0,0,1,1.19,0l18,18a.83.83,0,0,1,0,1.19Z" transform="translate(-43.85 -42.39)"/>
    </symbol>

    <symbol id="footer-prenumerata" x="0px" y="0px" width="100%" height="100%" viewBox="0 0 73.9 69">
        <path d="M49.48,66H52.2V64.85l1,0,7.91-.16V50.89h1.06c6.58-.08,12,1.07,16.17,3.61a18.27,18.27,0,0,1,8.12,11l4-1.19.15,0h.18l27.45.55,1,0V66h3v52.47H90v1.41H81.52v-1.41H48.41V66Zm11.67.79-6.82.14v45.41l26.73-.57h.18l.17,0,2.16.72A23.38,23.38,0,0,0,75.29,104a27.11,27.11,0,0,0-13.11-3.47l-1,0V66.79ZM77.28,56.3C73.7,54.11,69,53.05,63.28,53V98.46a28.73,28.73,0,0,1,13.09,3.71,25,25,0,0,1,8.32,8.15V67A16.46,16.46,0,0,0,77.28,56.3ZM52.2,68.13H50.54v48.22H83.65v1.4h4.21v-1.4h32.33V68.13h-.89v46.38l-1.08,0-27.63-.59-3.77,1.25-1.07.36-1.06-.36-3.77-1.25-27.63.59-1.09,0V68.13Zm34.62-.5v45.28l3.28-1.09.17,0h.18l26.73.57V66.93L90.94,66.4l-4.12,1.23Z" transform="translate(-48.41 -50.87)"/>
    </symbol>

    <!-- Audio icons -->
    <symbol id="speaker" x="0px" y="0px" width="100%" height="100%" viewBox="0 0 90.69 77.67">
        <path class="cls-1" d="M80.26,111.89a3.78,3.78,0,0,1-6.45,2.68l-14-14H43.74A3.76,3.76,0,0,1,40,96.78V74.11a3.76,3.76,0,0,1,3.78-3.78H59.8l14-14A3.78,3.78,0,0,1,80.26,59ZM98.53,78a14.25,14.25,0,0,0-5.36-5.51,5,5,0,0,0-6.92,1.66A4.93,4.93,0,0,0,85.62,78,4.73,4.73,0,0,0,88,81.19a4.59,4.59,0,0,1,2.36,4.17,4.66,4.66,0,0,1-2.21,4.18,4.88,4.88,0,0,0-2,3.3A5.13,5.13,0,0,0,87,96.62a4.61,4.61,0,0,0,3.23,2A5.28,5.28,0,0,0,94,97.88a16.18,16.18,0,0,0,4.72-5.43,14.54,14.54,0,0,0,1.74-7A15.23,15.23,0,0,0,98.53,78Zm13.06-7.47A30.52,30.52,0,0,0,101,59.62a5,5,0,0,0-6.92,1.66,4.93,4.93,0,0,0-.63,3.85,4.73,4.73,0,0,0,2.36,3.15A20.13,20.13,0,0,1,96.79,102a5.19,5.19,0,0,0-2.12,3.31,4.69,4.69,0,0,0,.86,3.78,4.85,4.85,0,0,0,6.93,1.26,30.29,30.29,0,0,0,13.07-24.88A29.25,29.25,0,0,0,111.59,70.57Zm-6.45-24.49A4.82,4.82,0,0,0,102,48.37a4.93,4.93,0,0,0-.63,3.85,4.73,4.73,0,0,0,2.36,3.15A35.13,35.13,0,0,1,116,68.05a34.26,34.26,0,0,1,4.57,17.39,35,35,0,0,1-4,16.38,33.73,33.73,0,0,1-11.25,12.59,5.38,5.38,0,0,0-2,3.31,4.85,4.85,0,0,0,.79,3.78,4.59,4.59,0,0,0,3.22,2,5.33,5.33,0,0,0,3.78-.78,46.11,46.11,0,0,0,14.33-16.3,45.07,45.07,0,0,0-.71-43.29,45.83,45.83,0,0,0-15.82-16.46A4.82,4.82,0,0,0,105.14,46.08Z" transform="translate(-39.96 -45.94)"/>
    </symbol>
    
    <symbol id="pause" x="0px" y="0px" width="100%" height="100%" viewBox="0 0 86.72 108.4">
        <path class="cls-1" d="M56.23,30.14A14.45,14.45,0,0,0,41.78,44.59v79.5a14.46,14.46,0,0,0,28.91,0V44.59A14.45,14.45,0,0,0,56.23,30.14Zm57.82,0A14.46,14.46,0,0,0,99.59,44.59v79.5a14.46,14.46,0,0,0,28.91,0V44.59A14.45,14.45,0,0,0,114.05,30.14Z" transform="translate(-41.78 -30.14)"/>
    </symbol>

    <symbol id="play" x="0px" y="0px" width="100%" height="100%" viewBox="0 0 81.44 93">
        <path class="cls-1" d="M122,77.24a8.15,8.15,0,0,1,3.9,4.54,8.68,8.68,0,0,1,0,5.82,8.15,8.15,0,0,1-3.9,4.54l-64,37.8A8.21,8.21,0,0,1,52.27,131a8.72,8.72,0,0,1-5.18-2.91A8.22,8.22,0,0,1,45,122.49V46.9A8.2,8.2,0,0,1,47.18,41a8.91,8.91,0,0,1,5.27-2.72,7.91,7.91,0,0,1,5.63,1.18Z" transform="translate(-45 -38.17)"/>
    </symbol>
</svg>
