<svg xmlns="http://www.w3.org/2000/svg" viewBox="0 0 625.68 123.31"><defs><style>.cls-1{fill:#fff;}</style></defs><title>Zasób 1</title><g id="Warstwa_2" data-name="Warstwa 2"><g id="Layer_1" data-name="Layer 1"><path class="cls-1" d="M361.86,66.23l42.89-15.61a23.13,23.13,0,0,0-26.88-8.51c-11.16,4.06-16.78,12.43-16,24.12m-16,17.8c-3.8-10.43-4.64-19.61-1.92-28.58,4.11-14.31,14.1-25.26,27.76-30.24,10.87-3.95,23-3.05,34.19,2.53A43.41,43.41,0,0,1,427.5,52.33a45.25,45.25,0,0,1-1.17,33.36c-4.94,11.12-13.43,18.86-25,23.09-17.48,6.36-35,1.6-48.09-13.28l19.84-7.22c6.11,4.93,14.3,5.94,22.38,3,12.49-4.54,18.14-14.59,15.21-26.33L347.47,88c-.48-1.33-1.11-2.6-1.59-3.92"/><path class="cls-1" d="M498.85,113.91l-6.41-36.38c-3.42-19.41-8.12-28.19-22-25.74S454.31,65,457.81,84.9l6.2,35.15-18.49,3.26L431,41.24,449.69,38l1.65,9.32c4.33-8.48,10.74-13.24,20.06-14.88,11.92-2.11,21.44.94,28.81,8.79,6.24,6.77,8.21,15.25,10.1,25.95L518,110.54l-19.11,3.37Z"/><path class="cls-1" d="M568.93,43.31c-12.44-5.07-26.57,1.35-31.58,13.66-5.18,12.73.38,26.51,14,32,11.45,4.66,24.93-1,30.12-13.76,5.35-13.16-.07-26.88-12.52-31.94m-2.26,70.29,2.56-6.29A39.48,39.48,0,0,1,542,105.88c-9.73-4-17.17-10.66-21.51-19.27a44.53,44.53,0,0,1-1.58-37.5,43.7,43.7,0,0,1,25.34-24.54,41,41,0,0,1,30.6.61c9.58,3.9,16.09,9.22,20.63,17.74l12.64-31.05L625.68,19,584.26,120.77l-17.59-7.17Z"/><polygon class="cls-1" points="110.21 26.6 89.57 26.6 76.27 73.98 62.52 26.6 48.45 26.6 33.93 73.98 20.63 26.6 0 26.6 28.43 108.68 40.96 108.68 54.87 59 69.09 108.68 81.62 108.68 110.21 26.6 110.21 26.6"/><path class="cls-1" d="M145.45,41.73a22.63,22.63,0,0,0-21.86,16.81h44.64c-3.21-11-11.16-16.81-22.78-16.81m43.26,31.94H123c1.23,11.77,9.79,19.11,22.78,19.11,8.4,0,15.59-3.67,19.56-10.24H186c-7,18-21.56,28.28-39.74,28.28-12.08,0-22.47-4.28-30.73-12.84a44.3,44.3,0,0,1-12.23-30.27,42.46,42.46,0,0,1,11.62-29.8c8.41-8.87,19.26-13.76,30.57-13.76,14.22,0,27.06,6.73,35.62,18.49,5.5,7.34,7.79,16,7.79,26.91,0,1.37-.15,2.75-.15,4.12"/><path class="cls-1" d="M234,41.73a22.63,22.63,0,0,0-21.86,16.81h44.64c-3.21-11-11.16-16.81-22.78-16.81m43.26,31.94H211.51c1.23,11.77,9.78,19.11,22.78,19.11,8.4,0,15.59-3.67,19.56-10.24h20.64c-7,18-21.56,28.28-39.74,28.28-12.08,0-22.48-4.28-30.73-12.84A44.29,44.29,0,0,1,191.8,67.71a42.45,42.45,0,0,1,11.61-29.8C211.82,29,222.67,24.15,234,24.15c14.22,0,27.06,6.73,35.62,18.49,5.5,7.34,7.79,16,7.79,26.91,0,1.37-.15,2.75-.15,4.12"/><polygon class="cls-1" points="329.63 108.68 299.82 66.95 299.82 108.68 281.33 108.68 281.33 0 299.82 0 299.82 64.66 326.42 26.6 347.97 26.6 319.54 65.57 353.63 108.68 329.63 108.68 329.63 108.68"/></g></g></svg>